<svg id="925ed128-4dab-4cb8-886f-8e44b9f5a759" data-name="Layer 1" xmlns="http://www.w3.org/2000/svg" viewBox="0 0 525 176"><defs><style>.\33 7323ca5-2fdb-4793-a8dc-370b044e815a{font-size:60px;font-family:Biko, Biko;}.\33 7323ca5-2fdb-4793-a8dc-370b044e815a,.bf79e0c4-4770-4432-840d-7d24618d114f{fill:#fff;}.d5cd6a5d-ae5b-4a94-a891-00abe49221cc{letter-spacing:0.02em;}.\31 3a0cae0-80e3-45c5-8f76-0da53bf7e40c{letter-spacing:0.03em;}.c603f164-7d00-4dfe-8bcd-e2a90f4b02cc{letter-spacing:0.01em;}.fa0d57af-3065-4c5a-8b89-bb1a4f42e8d9{letter-spacing:-0.01em;}.\33 c6776d5-cd17-41f7-aa36-6c26dc8daa7d{letter-spacing:0.03em;}.a6025383-0fe1-43f4-86aa-0ab602f32537{fill:none;stroke:#fff;stroke-miterlimit:10;stroke-width:3px;}</style></defs><title>logo</title><text class="37323ca5-2fdb-4793-a8dc-370b044e815a" transform="translate(152.63 110.47)">S<tspan class="d5cd6a5d-ae5b-4a94-a891-00abe49221cc" x="36.06" y="0">I</tspan><tspan class="13a0cae0-80e3-45c5-8f76-0da53bf7e40c" x="53.46" y="0">M</tspan><tspan class="c603f164-7d00-4dfe-8bcd-e2a90f4b02cc" x="103.86" y="0">I</tspan><tspan class="fa0d57af-3065-4c5a-8b89-bb1a4f42e8d9" x="120.66" y="0">O</tspan><tspan x="168.84" y="0">N</tspan><tspan class="3c6776d5-cd17-41f7-aa36-6c26dc8daa7d" x="213.72" y="0">E</tspan><tspan x="249.84" y="0">SCU</tspan></text><polyline class="a6025383-0fe1-43f4-86aa-0ab602f32537" points="167.5 47 167.59 7 6 7 6 172 167.59 172 167.5 140"/><path class="bf79e0c4-4770-4432-840d-7d24618d114f" d="M42,46v90h90V46Zm45.93,60.76a17.19,17.19,0,0,0,13.83-6.91l1.08-1.37,7.63,5.62-1.15,1.44a26.53,26.53,0,0,1-21.39,10.73A26.42,26.42,0,0,1,69,108.42a24.65,24.65,0,0,1-5.76-8.57,25.83,25.83,0,0,1-2.16-10.44A26.8,26.8,0,0,1,100,65.5a26.36,26.36,0,0,1,9.43,7.92l1.15,1.44-7.7,5.69-1.08-1.44A17,17,0,0,0,87.93,72.2a17.28,17.28,0,1,0,0,34.56Z"/></svg>